<svg width="1872" height="154" viewBox="0 0 1872 154" fill="none" xmlns="http://www.w3.org/2000/svg">
<path d="M16 17.7734L8.02122 1.79785L-1.90735e-06 17.7979L7.97878 14.7543L16 17.7734Z" fill="white"/>
<path d="M42 17.7734L34.0212 1.79785L26 17.7979L33.9788 14.7543L42 17.7734Z" fill="white"/>
<path d="M68 17.7734L60.0212 1.79785L52 17.7979L59.9788 14.7543L68 17.7734Z" fill="white"/>
<path d="M95 17.7734L86.5225 1.79785L78 17.7979L86.4775 14.7543L95 17.7734Z" fill="white"/>
<path d="M121 17.7734L113.021 1.79785L105 17.7979L112.979 14.7543L121 17.7734Z" fill="white"/>
<path d="M147 17.7734L139.021 1.79785L131 17.7979L138.979 14.7543L147 17.7734Z" fill="white"/>
<path d="M170.663 19.5721L167.09 2.07583L155.201 15.4546L163.696 14.5798L170.663 19.5721Z" fill="white"/>
<path d="M199 17.7734L191.021 1.79785L183 17.7979L190.979 14.7543L199 17.7734Z" fill="white"/>
<path d="M225 17.7734L217.021 1.79785L209 17.7979L216.979 14.7543L225 17.7734Z" fill="white"/>
<path d="M251 17.7734L243.021 1.79785L235 17.7979L242.979 14.7543L251 17.7734Z" fill="white"/>
<path d="M277 17.7734L269.021 1.79785L261 17.7979L268.979 14.7543L277 17.7734Z" fill="white"/>
<path d="M304 17.7734L296.021 1.79785L288 17.7979L295.979 14.7543L304 17.7734Z" fill="white"/>
<path d="M330 17.7734L322.021 1.79785L314 17.7979L321.979 14.7543L330 17.7734Z" fill="white"/>
<path d="M356 17.7734L348.021 1.79785L340 17.7979L347.979 14.7543L356 17.7734Z" fill="white"/>
<path d="M382 17.7734L374.021 1.79785L366 17.7979L373.979 14.7543L382 17.7734Z" fill="white"/>
<path d="M408 17.7734L400.021 1.79785L392 17.7979L399.979 14.7543L408 17.7734Z" fill="white"/>
<path d="M434 17.7734L426.021 1.79785L418 17.7979L425.979 14.7543L434 17.7734Z" fill="white"/>
<path d="M460 17.7734L452.021 1.79785L444 17.7979L451.979 14.7543L460 17.7734Z" fill="white"/>
<path d="M487 17.7734L479.021 1.79785L471 17.7979L478.979 14.7543L487 17.7734Z" fill="white"/>
<path d="M513 17.7734L505.021 1.79785L497 17.7979L504.979 14.7543L513 17.7734Z" fill="white"/>
<path d="M539 17.7734L531.021 1.79785L523 17.7979L530.979 14.7543L539 17.7734Z" fill="white"/>
<path d="M565 17.7734L557.021 1.79785L549 17.7979L556.979 14.7543L565 17.7734Z" fill="white"/>
<path d="M591 17.7734L583.021 1.79785L575 17.7979L582.979 14.7543L591 17.7734Z" fill="white"/>
<path d="M617 17.7734L609.021 1.79785L601 17.7979L608.979 14.7543L617 17.7734Z" fill="white"/>
<path d="M643 17.7734L635.021 1.79785L627 17.7979L634.979 14.7543L643 17.7734Z" fill="white"/>
<path d="M670 17.7734L661.523 1.79785L653 17.7979L661.477 14.7543L670 17.7734Z" fill="white"/>
<path d="M696 17.7734L688.021 1.79785L680 17.7979L687.979 14.7543L696 17.7734Z" fill="white"/>
<path d="M722 17.7734L714.021 1.79785L706 17.7979L713.979 14.7543L722 17.7734Z" fill="white"/>
<path d="M748 17.7734L740.021 1.79785L732 17.7979L739.979 14.7543L748 17.7734Z" fill="white"/>
<path d="M774 17.7734L766.021 1.79785L758 17.7979L765.979 14.7543L774 17.7734Z" fill="white"/>
<path d="M800 17.7734L792.021 1.79785L784 17.7979L791.979 14.7543L800 17.7734Z" fill="white"/>
<path d="M826 17.7734L818.021 1.79785L810 17.7979L817.979 14.7543L826 17.7734Z" fill="white"/>
<path d="M853 17.7734L844.523 1.79785L836 17.7979L844.477 14.7543L853 17.7734Z" fill="white"/>
<path d="M879 17.7734L871.021 1.79785L863 17.7979L870.979 14.7543L879 17.7734Z" fill="white"/>
<path d="M905 17.7734L897.021 1.79785L889 17.7979L896.979 14.7543L905 17.7734Z" fill="white"/>
<path d="M931 17.7734L923.021 1.79785L915 17.7979L922.979 14.7543L931 17.7734Z" fill="white"/>
<path d="M957 17.7734L949.021 1.79785L941 17.7979L948.979 14.7543L957 17.7734Z" fill="white"/>
<path d="M983 17.7734L975.021 1.79785L967 17.7979L974.979 14.7543L983 17.7734Z" fill="white"/>
<path d="M1009 17.7734L1001.02 1.79785L993 17.7979L1000.98 14.7543L1009 17.7734Z" fill="white"/>
<path d="M1036 17.7734L1027.52 1.79785L1019 17.7979L1027.48 14.7543L1036 17.7734Z" fill="white"/>
<path d="M1062 17.7734L1054.02 1.79785L1046 17.7979L1053.98 14.7543L1062 17.7734Z" fill="white"/>
<path d="M1088 17.7734L1080.02 1.79785L1072 17.7979L1079.98 14.7543L1088 17.7734Z" fill="white"/>
<path d="M1114 17.7734L1106.02 1.79785L1098 17.7979L1105.98 14.7543L1114 17.7734Z" fill="white"/>
<path d="M1140 17.7734L1132.02 1.79785L1124 17.7979L1131.98 14.7543L1140 17.7734Z" fill="white"/>
<path d="M1166 17.7734L1158.02 1.79785L1150 17.7979L1157.98 14.7543L1166 17.7734Z" fill="white"/>
<path d="M1192 17.7734L1184.02 1.79785L1176 17.7979L1183.98 14.7543L1192 17.7734Z" fill="white"/>
<path d="M1219 17.7734L1210.52 1.79785L1202 17.7979L1210.48 14.7543L1219 17.7734Z" fill="white"/>
<path d="M1245 17.7734L1237.02 1.79785L1229 17.7979L1236.98 14.7543L1245 17.7734Z" fill="white"/>
<path d="M1271 17.7734L1263.02 1.79785L1255 17.7979L1262.98 14.7543L1271 17.7734Z" fill="white"/>
<path d="M1297 17.7734L1289.02 1.79785L1281 17.7979L1288.98 14.7543L1297 17.7734Z" fill="white"/>
<path d="M1323 17.7734L1315.02 1.79785L1307 17.7979L1314.98 14.7543L1323 17.7734Z" fill="white"/>
<path d="M1349 17.7734L1341.02 1.79785L1333 17.7979L1340.98 14.7543L1349 17.7734Z" fill="white"/>
<path d="M1375 17.7734L1367.02 1.79785L1359 17.7979L1366.98 14.7543L1375 17.7734Z" fill="white"/>
<path d="M1401 17.7734L1393.02 1.79785L1385 17.7979L1392.98 14.7543L1401 17.7734Z" fill="white"/>
<path d="M1428 17.7734L1420.02 1.79785L1412 17.7979L1419.98 14.7543L1428 17.7734Z" fill="white"/>
<path d="M1454 17.7734L1446.02 1.79785L1438 17.7979L1445.98 14.7543L1454 17.7734Z" fill="white"/>
<path d="M1480 17.7734L1472.02 1.79785L1464 17.7979L1471.98 14.7543L1480 17.7734Z" fill="white"/>
<path d="M1506 17.7734L1498.02 1.79785L1490 17.7979L1497.98 14.7543L1506 17.7734Z" fill="white"/>
<path d="M1532 17.7734L1524.02 1.79785L1516 17.7979L1523.98 14.7543L1532 17.7734Z" fill="white"/>
<path d="M1558 17.7734L1550.02 1.79785L1542 17.7979L1549.98 14.7543L1558 17.7734Z" fill="white"/>
<path d="M1584 17.7734L1576.02 1.79785L1568 17.7979L1575.98 14.7543L1584 17.7734Z" fill="white"/>
<path d="M1611 17.7734L1603.02 1.79785L1595 17.7979L1602.98 14.7543L1611 17.7734Z" fill="white"/>
<path d="M1637 17.7734L1629.02 1.79785L1621 17.7979L1628.98 14.7543L1637 17.7734Z" fill="white"/>
<path d="M1663 17.7734L1655.02 1.79785L1647 17.7979L1654.98 14.7543L1663 17.7734Z" fill="white"/>
<path d="M1689 17.7734L1681.02 1.79785L1673 17.7979L1680.98 14.7543L1689 17.7734Z" fill="white"/>
<path d="M1715 17.7734L1707.02 1.79785L1699 17.7979L1706.98 14.7543L1715 17.7734Z" fill="white"/>
<path d="M1741 17.7734L1733.02 1.79785L1725 17.7979L1732.98 14.7543L1741 17.7734Z" fill="white"/>
<path d="M1767 17.7734L1759.02 1.79785L1751 17.7979L1758.98 14.7543L1767 17.7734Z" fill="white"/>
<path d="M1794 17.7734L1785.52 1.79785L1777 17.7979L1785.48 14.7543L1794 17.7734Z" fill="white"/>
<path d="M1820 17.7734L1812.02 1.79785L1804 17.7979L1811.98 14.7543L1820 17.7734Z" fill="white"/>
<path d="M1846 17.7734L1838.02 1.79785L1830 17.7979L1837.98 14.7543L1846 17.7734Z" fill="white"/>
<path d="M1872 17.7734L1864.02 1.79785L1856 17.7979L1863.98 14.7543L1872 17.7734Z" fill="white"/>
<path d="M15 44.7765L8.01857 30.7979L0.999999 44.7979L7.98143 42.1347L15 44.7765Z" fill="white"/>
<path d="M41 44.7765L34.0186 30.7979L27 44.7979L33.9814 42.1347L41 44.7765Z" fill="white"/>
<path d="M67 44.7765L60.0186 30.7979L53 44.7979L59.9814 42.1347L67 44.7765Z" fill="white"/>
<path d="M93 44.7765L86.0186 30.7979L79 44.7979L85.9814 42.1347L93 44.7765Z" fill="white"/>
<path d="M120 44.7765L113.019 30.7979L106 44.7979L112.981 42.1347L120 44.7765Z" fill="white"/>
<path d="M146 44.7765L139.019 30.7979L132 44.7979L138.981 42.1347L146 44.7765Z" fill="white"/>
<path d="M172 44.7765L165.019 30.7979L158 44.7979L164.981 42.1347L172 44.7765Z" fill="white"/>
<path d="M198 44.7765L191.019 30.7979L184 44.7979L190.981 42.1347L198 44.7765Z" fill="white"/>
<path d="M224 44.7765L217.019 30.7979L210 44.7979L216.981 42.1347L224 44.7765Z" fill="white"/>
<path d="M250 44.7765L243.019 30.7979L236 44.7979L242.981 42.1347L250 44.7765Z" fill="white"/>
<path d="M276 44.7765L269.019 30.7979L262 44.7979L268.981 42.1347L276 44.7765Z" fill="white"/>
<path d="M303 44.7765L296.019 30.7979L289 44.7979L295.981 42.1347L303 44.7765Z" fill="white"/>
<path d="M329 44.7765L322.019 30.7979L315 44.7979L321.981 42.1347L329 44.7765Z" fill="white"/>
<path d="M355 44.7765L348.019 30.7979L341 44.7979L347.981 42.1347L355 44.7765Z" fill="white"/>
<path d="M381 44.7765L374.019 30.7979L367 44.7979L373.981 42.1347L381 44.7765Z" fill="white"/>
<path d="M407 44.7765L400.019 30.7979L393 44.7979L399.981 42.1347L407 44.7765Z" fill="white"/>
<path d="M433 44.7765L426.019 30.7979L419 44.7979L425.981 42.1347L433 44.7765Z" fill="white"/>
<path d="M459 44.7765L452.019 30.7979L445 44.7979L451.981 42.1347L459 44.7765Z" fill="white"/>
<path d="M486 44.7765L479.019 30.7979L472 44.7979L478.981 42.1347L486 44.7765Z" fill="white"/>
<path d="M512 44.7765L505.019 30.7979L498 44.7979L504.981 42.1347L512 44.7765Z" fill="white"/>
<path d="M538 44.7765L531.019 30.7979L524 44.7979L530.981 42.1347L538 44.7765Z" fill="white"/>
<path d="M564 44.7765L557.019 30.7979L550 44.7979L556.981 42.1347L564 44.7765Z" fill="white"/>
<path d="M590 44.7765L583.019 30.7979L576 44.7979L582.981 42.1347L590 44.7765Z" fill="white"/>
<path d="M616 44.7765L609.019 30.7979L602 44.7979L608.981 42.1347L616 44.7765Z" fill="white"/>
<path d="M642 44.7765L635.019 30.7979L628 44.7979L634.981 42.1347L642 44.7765Z" fill="white"/>
<path d="M668 44.7765L661.019 30.7979L654 44.7979L660.981 42.1347L668 44.7765Z" fill="white"/>
<path d="M695 44.7765L688.019 30.7979L681 44.7979L687.981 42.1347L695 44.7765Z" fill="white"/>
<path d="M721 44.7765L714.019 30.7979L707 44.7979L713.981 42.1347L721 44.7765Z" fill="white"/>
<path d="M747 44.7765L740.019 30.7979L733 44.7979L739.981 42.1347L747 44.7765Z" fill="white"/>
<path d="M773 44.7765L766.019 30.7979L759 44.7979L765.981 42.1347L773 44.7765Z" fill="white"/>
<path d="M799 44.7765L792.019 30.7979L785 44.7979L791.981 42.1347L799 44.7765Z" fill="white"/>
<path d="M825 44.7765L818.019 30.7979L811 44.7979L817.981 42.1347L825 44.7765Z" fill="white"/>
<path d="M851 44.7765L844.019 30.7979L837 44.7979L843.981 42.1347L851 44.7765Z" fill="white"/>
<path d="M878 44.7765L871.019 30.7979L864 44.7979L870.981 42.1347L878 44.7765Z" fill="white"/>
<path d="M904 44.7765L897.019 30.7979L890 44.7979L896.981 42.1347L904 44.7765Z" fill="white"/>
<path d="M930 44.7765L923.019 30.7979L916 44.7979L922.981 42.1347L930 44.7765Z" fill="white"/>
<path d="M956 44.7765L949.019 30.7979L942 44.7979L948.981 42.1347L956 44.7765Z" fill="white"/>
<path d="M982 44.7765L975.019 30.7979L968 44.7979L974.981 42.1347L982 44.7765Z" fill="white"/>
<path d="M1008 44.7765L1001.02 30.7979L994 44.7979L1000.98 42.1347L1008 44.7765Z" fill="white"/>
<path d="M1034 44.7765L1027.02 30.7979L1020 44.7979L1026.98 42.1347L1034 44.7765Z" fill="white"/>
<path d="M1061 44.7765L1054.02 30.7979L1047 44.7979L1053.98 42.1347L1061 44.7765Z" fill="white"/>
<path d="M1087 44.7765L1080.02 30.7979L1073 44.7979L1079.98 42.1347L1087 44.7765Z" fill="white"/>
<path d="M1113 44.7765L1106.02 30.7979L1099 44.7979L1105.98 42.1347L1113 44.7765Z" fill="white"/>
<path d="M1139 44.7765L1132.02 30.7979L1125 44.7979L1131.98 42.1347L1139 44.7765Z" fill="white"/>
<path d="M1165 44.7765L1158.02 30.7979L1151 44.7979L1157.98 42.1347L1165 44.7765Z" fill="white"/>
<path d="M1191 44.7765L1184.02 30.7979L1177 44.7979L1183.98 42.1347L1191 44.7765Z" fill="white"/>
<path d="M1217 44.7765L1210.02 30.7979L1203 44.7979L1209.98 42.1347L1217 44.7765Z" fill="white"/>
<path d="M1244 44.7765L1237.02 30.7979L1230 44.7979L1236.98 42.1347L1244 44.7765Z" fill="white"/>
<path d="M1270 44.7765L1263.02 30.7979L1256 44.7979L1262.98 42.1347L1270 44.7765Z" fill="white"/>
<path d="M1296 44.7765L1289.02 30.7979L1282 44.7979L1288.98 42.1347L1296 44.7765Z" fill="white"/>
<path d="M1322 44.7765L1315.02 30.7979L1308 44.7979L1314.98 42.1347L1322 44.7765Z" fill="white"/>
<path d="M1348 44.7765L1341.02 30.7979L1334 44.7979L1340.98 42.1347L1348 44.7765Z" fill="white"/>
<path d="M1374 44.7765L1367.02 30.7979L1360 44.7979L1366.98 42.1347L1374 44.7765Z" fill="white"/>
<path d="M1400 44.7765L1393.02 30.7979L1386 44.7979L1392.98 42.1347L1400 44.7765Z" fill="white"/>
<path d="M1427 44.7765L1420.02 30.7979L1413 44.7979L1419.98 42.1347L1427 44.7765Z" fill="white"/>
<path d="M1453 44.7765L1446.02 30.7979L1439 44.7979L1445.98 42.1347L1453 44.7765Z" fill="white"/>
<path d="M1479 44.7765L1472.02 30.7979L1465 44.7979L1471.98 42.1347L1479 44.7765Z" fill="white"/>
<path d="M1505 44.7765L1498.02 30.7979L1491 44.7979L1497.98 42.1347L1505 44.7765Z" fill="white"/>
<path d="M1531 44.7765L1524.02 30.7979L1517 44.7979L1523.98 42.1347L1531 44.7765Z" fill="white"/>
<path d="M1557 44.7765L1550.02 30.7979L1543 44.7979L1549.98 42.1347L1557 44.7765Z" fill="white"/>
<path d="M1583 44.7765L1576.02 30.7979L1569 44.7979L1575.98 42.1347L1583 44.7765Z" fill="white"/>
<path d="M1610 44.7765L1603.02 30.7979L1596 44.7979L1602.98 42.1347L1610 44.7765Z" fill="white"/>
<path d="M1636 44.7765L1629.02 30.7979L1622 44.7979L1628.98 42.1347L1636 44.7765Z" fill="white"/>
<path d="M1662 44.7765L1655.02 30.7979L1648 44.7979L1654.98 42.1347L1662 44.7765Z" fill="white"/>
<path d="M1688 44.7765L1681.02 30.7979L1674 44.7979L1680.98 42.1347L1688 44.7765Z" fill="white"/>
<path d="M1714 44.7765L1707.02 30.7979L1700 44.7979L1706.98 42.1347L1714 44.7765Z" fill="white"/>
<path d="M1740 44.7765L1733.02 30.7979L1726 44.7979L1732.98 42.1347L1740 44.7765Z" fill="white"/>
<path d="M1766 44.7765L1759.02 30.7979L1752 44.7979L1758.98 42.1347L1766 44.7765Z" fill="white"/>
<path d="M1793 44.7765L1786.02 30.7979L1779 44.7979L1785.98 42.1347L1793 44.7765Z" fill="white"/>
<path d="M1819 44.7765L1812.02 30.7979L1805 44.7979L1811.98 42.1347L1819 44.7765Z" fill="white"/>
<path d="M1845 44.7765L1838.02 30.7979L1831 44.7979L1837.98 42.1347L1845 44.7765Z" fill="white"/>
<path d="M1871 44.7765L1864.02 30.7979L1857 44.7979L1863.98 42.1347L1871 44.7765Z" fill="white"/>
<path d="M14 71.7795L8.01592 59.7979L2 71.7979L7.98408 69.5152L14 71.7795Z" fill="white"/>
<path d="M40 71.7795L34.0159 59.7979L28 71.7979L33.9841 69.5152L40 71.7795Z" fill="white"/>
<path d="M66 71.7795L60.0159 59.7979L54 71.7979L59.9841 69.5152L66 71.7795Z" fill="white"/>
<path d="M92 71.7795L86.0159 59.7979L80 71.7979L85.9841 69.5152L92 71.7795Z" fill="white"/>
<path d="M119 71.7795L113.016 59.7979L107 71.7979L112.984 69.5152L119 71.7795Z" fill="white"/>
<path d="M145 71.7795L139.016 59.7979L133 71.7979L138.984 69.5152L145 71.7795Z" fill="white"/>
<path d="M171 71.7795L165.016 59.7979L159 71.7979L164.984 69.5152L171 71.7795Z" fill="white"/>
<path d="M197 71.7795L191.016 59.7979L185 71.7979L190.984 69.5152L197 71.7795Z" fill="white"/>
<path d="M223 71.7795L217.016 59.7979L211 71.7979L216.984 69.5152L223 71.7795Z" fill="white"/>
<path d="M249 71.7795L243.016 59.7979L237 71.7979L242.984 69.5152L249 71.7795Z" fill="white"/>
<path d="M275 71.7795L269.016 59.7979L263 71.7979L268.984 69.5152L275 71.7795Z" fill="white"/>
<path d="M302 71.7795L296.016 59.7979L290 71.7979L295.984 69.5152L302 71.7795Z" fill="white"/>
<path d="M328 71.7795L322.016 59.7979L316 71.7979L321.984 69.5152L328 71.7795Z" fill="white"/>
<path d="M354 71.7795L348.016 59.7979L342 71.7979L347.984 69.5152L354 71.7795Z" fill="white"/>
<path d="M380 71.7795L374.016 59.7979L368 71.7979L373.984 69.5152L380 71.7795Z" fill="white"/>
<path d="M406 71.7795L400.016 59.7979L394 71.7979L399.984 69.5152L406 71.7795Z" fill="white"/>
<path d="M432 71.7795L426.016 59.7979L420 71.7979L425.984 69.5152L432 71.7795Z" fill="white"/>
<path d="M458 71.7795L452.016 59.7979L446 71.7979L451.984 69.5152L458 71.7795Z" fill="white"/>
<path d="M485 71.7795L479.016 59.7979L473 71.7979L478.984 69.5152L485 71.7795Z" fill="white"/>
<path d="M511 71.7795L505.016 59.7979L499 71.7979L504.984 69.5152L511 71.7795Z" fill="white"/>
<path d="M537 71.7795L531.016 59.7979L525 71.7979L530.984 69.5152L537 71.7795Z" fill="white"/>
<path d="M563 71.7795L557.016 59.7979L551 71.7979L556.984 69.5152L563 71.7795Z" fill="white"/>
<path d="M589 71.7795L583.016 59.7979L577 71.7979L582.984 69.5152L589 71.7795Z" fill="white"/>
<path d="M615 71.7795L609.016 59.7979L603 71.7979L608.984 69.5152L615 71.7795Z" fill="white"/>
<path d="M641 71.7795L635.016 59.7979L629 71.7979L634.984 69.5152L641 71.7795Z" fill="white"/>
<path d="M668 71.7795L662.016 59.7979L656 71.7979L661.984 69.5152L668 71.7795Z" fill="white"/>
<path d="M694 71.7795L688.016 59.7979L682 71.7979L687.984 69.5152L694 71.7795Z" fill="white"/>
<path d="M720 71.7795L714.016 59.7979L708 71.7979L713.984 69.5152L720 71.7795Z" fill="white"/>
<path d="M746 71.7795L740.016 59.7979L734 71.7979L739.984 69.5152L746 71.7795Z" fill="white"/>
<path d="M772 71.7795L766.016 59.7979L760 71.7979L765.984 69.5152L772 71.7795Z" fill="white"/>
<path d="M798 71.7795L792.016 59.7979L786 71.7979L791.984 69.5152L798 71.7795Z" fill="white"/>
<path d="M824 71.7795L818.016 59.7979L812 71.7979L817.984 69.5152L824 71.7795Z" fill="white"/>
<path d="M851 71.7795L844.517 59.7979L838 71.7979L844.483 69.5152L851 71.7795Z" fill="white"/>
<path d="M877 71.7795L871.016 59.7979L865 71.7979L870.984 69.5152L877 71.7795Z" fill="white"/>
<path d="M903 71.7795L897.016 59.7979L891 71.7979L896.984 69.5152L903 71.7795Z" fill="white"/>
<path d="M929 71.7795L923.016 59.7979L917 71.7979L922.984 69.5152L929 71.7795Z" fill="white"/>
<path d="M955 71.7795L949.016 59.7979L943 71.7979L948.984 69.5152L955 71.7795Z" fill="white"/>
<path d="M981 71.7795L975.016 59.7979L969 71.7979L974.984 69.5152L981 71.7795Z" fill="white"/>
<path d="M1007 71.7795L1001.02 59.7979L995 71.7979L1000.98 69.5152L1007 71.7795Z" fill="white"/>
<path d="M1034 71.7795L1027.52 59.7979L1021 71.7979L1027.48 69.5152L1034 71.7795Z" fill="white"/>
<path d="M1060 71.7795L1054.02 59.7979L1048 71.7979L1053.98 69.5152L1060 71.7795Z" fill="white"/>
<path d="M1086 71.7795L1080.02 59.7979L1074 71.7979L1079.98 69.5152L1086 71.7795Z" fill="white"/>
<path d="M1112 71.7795L1106.02 59.7979L1100 71.7979L1105.98 69.5152L1112 71.7795Z" fill="white"/>
<path d="M1138 71.7795L1132.02 59.7979L1126 71.7979L1131.98 69.5152L1138 71.7795Z" fill="white"/>
<path d="M1164 71.7795L1158.02 59.7979L1152 71.7979L1157.98 69.5152L1164 71.7795Z" fill="white"/>
<path d="M1190 71.7795L1184.02 59.7979L1178 71.7979L1183.98 69.5152L1190 71.7795Z" fill="white"/>
<path d="M1216 71.7795L1210.02 59.7979L1204 71.7979L1209.98 69.5152L1216 71.7795Z" fill="white"/>
<path d="M1243 71.7795L1237.02 59.7979L1231 71.7979L1236.98 69.5152L1243 71.7795Z" fill="white"/>
<path d="M1269 71.7795L1263.02 59.7979L1257 71.7979L1262.98 69.5152L1269 71.7795Z" fill="white"/>
<path d="M1295 71.7795L1289.02 59.7979L1283 71.7979L1288.98 69.5152L1295 71.7795Z" fill="white"/>
<path d="M1321 71.7795L1315.02 59.7979L1309 71.7979L1314.98 69.5152L1321 71.7795Z" fill="white"/>
<path d="M1347 71.7795L1341.02 59.7979L1335 71.7979L1340.98 69.5152L1347 71.7795Z" fill="white"/>
<path d="M1373 71.7795L1367.02 59.7979L1361 71.7979L1366.98 69.5152L1373 71.7795Z" fill="white"/>
<path d="M1399 71.7795L1393.02 59.7979L1387 71.7979L1392.98 69.5152L1399 71.7795Z" fill="white"/>
<path d="M1426 71.7795L1420.02 59.7979L1414 71.7979L1419.98 69.5152L1426 71.7795Z" fill="white"/>
<path d="M1452 71.7795L1446.02 59.7979L1440 71.7979L1445.98 69.5152L1452 71.7795Z" fill="white"/>
<path d="M1478 71.7795L1472.02 59.7979L1466 71.7979L1471.98 69.5152L1478 71.7795Z" fill="white"/>
<path d="M1504 71.7795L1498.02 59.7979L1492 71.7979L1497.98 69.5152L1504 71.7795Z" fill="white"/>
<path d="M1530 71.7795L1524.02 59.7979L1518 71.7979L1523.98 69.5152L1530 71.7795Z" fill="white"/>
<path d="M1556 71.7795L1550.02 59.7979L1544 71.7979L1549.98 69.5152L1556 71.7795Z" fill="white"/>
<path d="M1582 71.7795L1576.02 59.7979L1570 71.7979L1575.98 69.5152L1582 71.7795Z" fill="white"/>
<path d="M1609 71.7795L1603.02 59.7979L1597 71.7979L1602.98 69.5152L1609 71.7795Z" fill="white"/>
<path d="M1635 71.7795L1629.02 59.7979L1623 71.7979L1628.98 69.5152L1635 71.7795Z" fill="white"/>
<path d="M1661 71.7795L1655.02 59.7979L1649 71.7979L1654.98 69.5152L1661 71.7795Z" fill="white"/>
<path d="M1687 71.7795L1681.02 59.7979L1675 71.7979L1680.98 69.5152L1687 71.7795Z" fill="white"/>
<path d="M1713 71.7795L1707.02 59.7979L1701 71.7979L1706.98 69.5152L1713 71.7795Z" fill="white"/>
<path d="M1739 71.7795L1733.02 59.7979L1727 71.7979L1732.98 69.5152L1739 71.7795Z" fill="white"/>
<path d="M1765 71.7795L1759.02 59.7979L1753 71.7979L1758.98 69.5152L1765 71.7795Z" fill="white"/>
<path d="M1792 71.7795L1786.02 59.7979L1780 71.7979L1785.98 69.5152L1792 71.7795Z" fill="white"/>
<path d="M1818 71.7795L1812.02 59.7979L1806 71.7979L1811.98 69.5152L1818 71.7795Z" fill="white"/>
<path d="M1844 71.7795L1838.02 59.7979L1832 71.7979L1837.98 69.5152L1844 71.7795Z" fill="white"/>
<path d="M1870 71.7795L1864.02 59.7979L1858 71.7979L1863.98 69.5152L1870 71.7795Z" fill="white"/>
<path d="M13 99.781L8.01326 88.7979L3 99.7979L7.98674 97.7054L13 99.781Z" fill="white"/>
<path d="M39 99.781L34.0133 88.7979L29 99.7979L33.9867 97.7054L39 99.781Z" fill="white"/>
<path d="M65 99.781L60.0133 88.7979L55 99.7979L59.9867 97.7054L65 99.781Z" fill="white"/>
<path d="M91 99.781L86.0133 88.7979L81 99.7979L85.9867 97.7054L91 99.781Z" fill="white"/>
<path d="M118 99.781L113.013 88.7979L108 99.7979L112.987 97.7054L118 99.781Z" fill="white"/>
<path d="M144 99.781L139.013 88.7979L134 99.7979L138.987 97.7054L144 99.781Z" fill="white"/>
<path d="M170 99.781L165.013 88.7979L160 99.7979L164.987 97.7054L170 99.781Z" fill="white"/>
<path d="M196 99.781L191.013 88.7979L186 99.7979L190.987 97.7054L196 99.781Z" fill="white"/>
<path d="M222 99.781L217.013 88.7979L212 99.7979L216.987 97.7054L222 99.781Z" fill="white"/>
<path d="M248 99.781L243.013 88.7979L238 99.7979L242.987 97.7054L248 99.781Z" fill="white"/>
<path d="M274 99.781L269.013 88.7979L264 99.7979L268.987 97.7054L274 99.781Z" fill="white"/>
<path d="M301 99.781L296.013 88.7979L291 99.7979L295.987 97.7054L301 99.781Z" fill="white"/>
<path d="M327 99.781L322.013 88.7979L317 99.7979L321.987 97.7054L327 99.781Z" fill="white"/>
<path d="M353 99.781L348.013 88.7979L343 99.7979L347.987 97.7054L353 99.781Z" fill="white"/>
<path d="M379 99.781L374.013 88.7979L369 99.7979L373.987 97.7054L379 99.781Z" fill="white"/>
<path d="M405 99.781L400.013 88.7979L395 99.7979L399.987 97.7054L405 99.781Z" fill="white"/>
<path d="M431 99.781L426.013 88.7979L421 99.7979L425.987 97.7054L431 99.781Z" fill="white"/>
<path d="M457 99.781L452.013 88.7979L447 99.7979L451.987 97.7054L457 99.781Z" fill="white"/>
<path d="M484 99.781L479.013 88.7979L474 99.7979L478.987 97.7054L484 99.781Z" fill="white"/>
<path d="M510 99.781L505.013 88.7979L500 99.7979L504.987 97.7054L510 99.781Z" fill="white"/>
<path d="M536 99.781L531.013 88.7979L526 99.7979L530.987 97.7054L536 99.781Z" fill="white"/>
<path d="M562 99.781L557.013 88.7979L552 99.7979L556.987 97.7054L562 99.781Z" fill="white"/>
<path d="M588 99.781L583.013 88.7979L578 99.7979L582.987 97.7054L588 99.781Z" fill="white"/>
<path d="M614 99.781L609.013 88.7979L604 99.7979L608.987 97.7054L614 99.781Z" fill="white"/>
<path d="M640 99.781L635.013 88.7979L630 99.7979L634.987 97.7054L640 99.781Z" fill="white"/>
<path d="M667 99.781L662.013 88.7979L657 99.7979L661.987 97.7054L667 99.781Z" fill="white"/>
<path d="M693 99.781L688.013 88.7979L683 99.7979L687.987 97.7054L693 99.781Z" fill="white"/>
<path d="M719 99.781L714.013 88.7979L709 99.7979L713.987 97.7054L719 99.781Z" fill="white"/>
<path d="M745 99.781L740.013 88.7979L735 99.7979L739.987 97.7054L745 99.781Z" fill="white"/>
<path d="M771 99.781L766.013 88.7979L761 99.7979L765.987 97.7054L771 99.781Z" fill="white"/>
<path d="M797 99.781L792.013 88.7979L787 99.7979L791.987 97.7054L797 99.781Z" fill="white"/>
<path d="M823 99.781L818.013 88.7979L813 99.7979L817.987 97.7054L823 99.781Z" fill="white"/>
<path d="M850 99.781L844.515 88.7979L839 99.7979L844.485 97.7054L850 99.781Z" fill="white"/>
<path d="M876 99.781L871.013 88.7979L866 99.7979L870.987 97.7054L876 99.781Z" fill="white"/>
<path d="M902 99.781L897.013 88.7979L892 99.7979L896.987 97.7054L902 99.781Z" fill="white"/>
<path d="M928 99.781L923.013 88.7979L918 99.7979L922.987 97.7054L928 99.781Z" fill="white"/>
<path d="M954 99.781L949.013 88.7979L944 99.7979L948.987 97.7054L954 99.781Z" fill="white"/>
<path d="M980 99.781L975.013 88.7979L970 99.7979L974.987 97.7054L980 99.781Z" fill="white"/>
<path d="M1006 99.781L1001.01 88.7979L996 99.7979L1000.99 97.7054L1006 99.781Z" fill="white"/>
<path d="M1033 99.781L1027.51 88.7979L1022 99.7979L1027.49 97.7054L1033 99.781Z" fill="white"/>
<path d="M1059 99.781L1054.01 88.7979L1049 99.7979L1053.99 97.7054L1059 99.781Z" fill="white"/>
<path d="M1085 99.781L1080.01 88.7979L1075 99.7979L1079.99 97.7054L1085 99.781Z" fill="white"/>
<path d="M1111 99.781L1106.01 88.7979L1101 99.7979L1105.99 97.7054L1111 99.781Z" fill="white"/>
<path d="M1137 99.781L1132.01 88.7979L1127 99.7979L1131.99 97.7054L1137 99.781Z" fill="white"/>
<path d="M1163 99.781L1158.01 88.7979L1153 99.7979L1157.99 97.7054L1163 99.781Z" fill="white"/>
<path d="M1189 99.781L1184.01 88.7979L1179 99.7979L1183.99 97.7054L1189 99.781Z" fill="white"/>
<path d="M1215 99.781L1210.01 88.7979L1205 99.7979L1209.99 97.7054L1215 99.781Z" fill="white"/>
<path d="M1242 99.781L1237.01 88.7979L1232 99.7979L1236.99 97.7054L1242 99.781Z" fill="white"/>
<path d="M1268 99.781L1263.01 88.7979L1258 99.7979L1262.99 97.7054L1268 99.781Z" fill="white"/>
<path d="M1294 99.781L1289.01 88.7979L1284 99.7979L1288.99 97.7054L1294 99.781Z" fill="white"/>
<path d="M1320 99.781L1315.01 88.7979L1310 99.7979L1314.99 97.7054L1320 99.781Z" fill="white"/>
<path d="M1346 99.781L1341.01 88.7979L1336 99.7979L1340.99 97.7054L1346 99.781Z" fill="white"/>
<path d="M1372 99.781L1367.01 88.7979L1362 99.7979L1366.99 97.7054L1372 99.781Z" fill="white"/>
<path d="M1398 99.781L1393.01 88.7979L1388 99.7979L1392.99 97.7054L1398 99.781Z" fill="white"/>
<path d="M1425 99.781L1420.01 88.7979L1415 99.7979L1419.99 97.7054L1425 99.781Z" fill="white"/>
<path d="M1451 99.781L1446.01 88.7979L1441 99.7979L1445.99 97.7054L1451 99.781Z" fill="white"/>
<path d="M1477 99.781L1472.01 88.7979L1467 99.7979L1471.99 97.7054L1477 99.781Z" fill="white"/>
<path d="M1503 99.781L1498.01 88.7979L1493 99.7979L1497.99 97.7054L1503 99.781Z" fill="white"/>
<path d="M1529 99.781L1524.01 88.7979L1519 99.7979L1523.99 97.7054L1529 99.781Z" fill="white"/>
<path d="M1555 99.781L1550.01 88.7979L1545 99.7979L1549.99 97.7054L1555 99.781Z" fill="white"/>
<path d="M1581 99.781L1576.01 88.7979L1571 99.7979L1575.99 97.7054L1581 99.781Z" fill="white"/>
<path d="M1608 99.781L1603.01 88.7979L1598 99.7979L1602.99 97.7054L1608 99.781Z" fill="white"/>
<path d="M1634 99.781L1629.01 88.7979L1624 99.7979L1628.99 97.7054L1634 99.781Z" fill="white"/>
<path d="M1660 99.781L1655.01 88.7979L1650 99.7979L1654.99 97.7054L1660 99.781Z" fill="white"/>
<path d="M1686 99.781L1681.01 88.7979L1676 99.7979L1680.99 97.7054L1686 99.781Z" fill="white"/>
<path d="M1712 99.781L1707.01 88.7979L1702 99.7979L1706.99 97.7054L1712 99.781Z" fill="white"/>
<path d="M1738 99.781L1733.01 88.7979L1728 99.7979L1732.99 97.7054L1738 99.781Z" fill="white"/>
<path d="M1764 99.781L1759.01 88.7979L1754 99.7979L1758.99 97.7054L1764 99.781Z" fill="white"/>
<path d="M1791 99.781L1786.01 88.7979L1781 99.7979L1785.99 97.7054L1791 99.781Z" fill="white"/>
<path d="M1817 99.781L1812.01 88.7979L1807 99.7979L1811.99 97.7054L1817 99.781Z" fill="white"/>
<path d="M1843 99.781L1838.01 88.7979L1833 99.7979L1837.99 97.7054L1843 99.781Z" fill="white"/>
<path d="M1869 99.781L1864.01 88.7979L1859 99.7979L1863.99 97.7054L1869 99.781Z" fill="white"/>
<path d="M12 126.786L8.01061 118.798L4 126.798L7.98939 125.276L12 126.786Z" fill="white"/>
<path d="M38 126.786L34.0106 118.798L30 126.798L33.9894 125.276L38 126.786Z" fill="white"/>
<path d="M64 126.786L60.0106 118.798L56 126.798L59.9894 125.276L64 126.786Z" fill="white"/>
<path d="M90 126.786L86.0106 118.798L82 126.798L85.9894 125.276L90 126.786Z" fill="white"/>
<path d="M117 126.786L113.011 118.798L109 126.798L112.989 125.276L117 126.786Z" fill="white"/>
<path d="M143 126.786L139.011 118.798L135 126.798L138.989 125.276L143 126.786Z" fill="white"/>
<path d="M169 126.786L165.011 118.798L161 126.798L164.989 125.276L169 126.786Z" fill="white"/>
<path d="M195 126.786L191.011 118.798L187 126.798L190.989 125.276L195 126.786Z" fill="white"/>
<path d="M221 126.786L217.011 118.798L213 126.798L216.989 125.276L221 126.786Z" fill="white"/>
<path d="M247 126.786L243.011 118.798L239 126.798L242.989 125.276L247 126.786Z" fill="white"/>
<path d="M273 126.786L269.011 118.798L265 126.798L268.989 125.276L273 126.786Z" fill="white"/>
<path d="M300 126.786L296.011 118.798L292 126.798L295.989 125.276L300 126.786Z" fill="white"/>
<path d="M326 126.786L322.011 118.798L318 126.798L321.989 125.276L326 126.786Z" fill="white"/>
<path d="M352 126.786L348.011 118.798L344 126.798L347.989 125.276L352 126.786Z" fill="white"/>
<path d="M378 126.786L374.011 118.798L370 126.798L373.989 125.276L378 126.786Z" fill="white"/>
<path d="M404 126.786L400.011 118.798L396 126.798L399.989 125.276L404 126.786Z" fill="white"/>
<path d="M430 126.786L426.011 118.798L422 126.798L425.989 125.276L430 126.786Z" fill="white"/>
<path d="M456 126.786L452.011 118.798L448 126.798L451.989 125.276L456 126.786Z" fill="white"/>
<path d="M483 126.786L479.011 118.798L475 126.798L478.989 125.276L483 126.786Z" fill="white"/>
<path d="M509 126.786L505.011 118.798L501 126.798L504.989 125.276L509 126.786Z" fill="white"/>
<path d="M535 126.786L531.011 118.798L527 126.798L530.989 125.276L535 126.786Z" fill="white"/>
<path d="M561 126.786L557.011 118.798L553 126.798L556.989 125.276L561 126.786Z" fill="white"/>
<path d="M587 126.786L583.011 118.798L579 126.798L582.989 125.276L587 126.786Z" fill="white"/>
<path d="M613 126.786L609.011 118.798L605 126.798L608.989 125.276L613 126.786Z" fill="white"/>
<path d="M639 126.786L635.011 118.798L631 126.798L634.989 125.276L639 126.786Z" fill="white"/>
<path d="M666 126.786L662.011 118.798L658 126.798L661.989 125.276L666 126.786Z" fill="white"/>
<path d="M692 126.786L688.011 118.798L684 126.798L687.989 125.276L692 126.786Z" fill="white"/>
<path d="M718 126.786L714.011 118.798L710 126.798L713.989 125.276L718 126.786Z" fill="white"/>
<path d="M744 126.786L740.011 118.798L736 126.798L739.989 125.276L744 126.786Z" fill="white"/>
<path d="M770 126.786L766.011 118.798L762 126.798L765.989 125.276L770 126.786Z" fill="white"/>
<path d="M796 126.786L792.011 118.798L788 126.798L791.989 125.276L796 126.786Z" fill="white"/>
<path d="M822 126.786L818.011 118.798L814 126.798L817.989 125.276L822 126.786Z" fill="white"/>
<path d="M849 126.786L844.512 118.798L840 126.798L844.488 125.276L849 126.786Z" fill="white"/>
<path d="M875 126.786L871.011 118.798L867 126.798L870.989 125.276L875 126.786Z" fill="white"/>
<path d="M901 126.786L897.011 118.798L893 126.798L896.989 125.276L901 126.786Z" fill="white"/>
<path d="M927 126.786L923.011 118.798L919 126.798L922.989 125.276L927 126.786Z" fill="white"/>
<path d="M953 126.786L949.011 118.798L945 126.798L948.989 125.276L953 126.786Z" fill="white"/>
<path d="M979 126.786L975.011 118.798L971 126.798L974.989 125.276L979 126.786Z" fill="white"/>
<path d="M1005 126.786L1001.01 118.798L997 126.798L1000.99 125.276L1005 126.786Z" fill="white"/>
<path d="M1032 126.786L1027.51 118.798L1023 126.798L1027.49 125.276L1032 126.786Z" fill="white"/>
<path d="M1058 126.786L1054.01 118.798L1050 126.798L1053.99 125.276L1058 126.786Z" fill="white"/>
<path d="M1084 126.786L1080.01 118.798L1076 126.798L1079.99 125.276L1084 126.786Z" fill="white"/>
<path d="M1110 126.786L1106.01 118.798L1102 126.798L1105.99 125.276L1110 126.786Z" fill="white"/>
<path d="M1136 126.786L1132.01 118.798L1128 126.798L1131.99 125.276L1136 126.786Z" fill="white"/>
<path d="M1162 126.786L1158.01 118.798L1154 126.798L1157.99 125.276L1162 126.786Z" fill="white"/>
<path d="M1188 126.786L1184.01 118.798L1180 126.798L1183.99 125.276L1188 126.786Z" fill="white"/>
<path d="M1214 126.786L1210.01 118.798L1206 126.798L1209.99 125.276L1214 126.786Z" fill="white"/>
<path d="M1241 126.786L1237.01 118.798L1233 126.798L1236.99 125.276L1241 126.786Z" fill="white"/>
<path d="M1267 126.786L1263.01 118.798L1259 126.798L1262.99 125.276L1267 126.786Z" fill="white"/>
<path d="M1293 126.786L1289.01 118.798L1285 126.798L1288.99 125.276L1293 126.786Z" fill="white"/>
<path d="M1319 126.786L1315.01 118.798L1311 126.798L1314.99 125.276L1319 126.786Z" fill="white"/>
<path d="M1345 126.786L1341.01 118.798L1337 126.798L1340.99 125.276L1345 126.786Z" fill="white"/>
<path d="M1371 126.786L1367.01 118.798L1363 126.798L1366.99 125.276L1371 126.786Z" fill="white"/>
<path d="M1397 126.786L1393.01 118.798L1389 126.798L1392.99 125.276L1397 126.786Z" fill="white"/>
<path d="M1424 126.786L1420.01 118.798L1416 126.798L1419.99 125.276L1424 126.786Z" fill="white"/>
<path d="M1450 126.786L1446.01 118.798L1442 126.798L1445.99 125.276L1450 126.786Z" fill="white"/>
<path d="M1476 126.786L1472.01 118.798L1468 126.798L1471.99 125.276L1476 126.786Z" fill="white"/>
<path d="M1502 126.786L1498.01 118.798L1494 126.798L1497.99 125.276L1502 126.786Z" fill="white"/>
<path d="M1528 126.786L1524.01 118.798L1520 126.798L1523.99 125.276L1528 126.786Z" fill="white"/>
<path d="M1554 126.786L1550.01 118.798L1546 126.798L1549.99 125.276L1554 126.786Z" fill="white"/>
<path d="M1580 126.786L1576.01 118.798L1572 126.798L1575.99 125.276L1580 126.786Z" fill="white"/>
<path d="M1607 126.786L1603.01 118.798L1599 126.798L1602.99 125.276L1607 126.786Z" fill="white"/>
<path d="M1633 126.786L1629.01 118.798L1625 126.798L1628.99 125.276L1633 126.786Z" fill="white"/>
<path d="M1659 126.786L1655.01 118.798L1651 126.798L1654.99 125.276L1659 126.786Z" fill="white"/>
<path d="M1685 126.786L1681.01 118.798L1677 126.798L1680.99 125.276L1685 126.786Z" fill="white"/>
<path d="M1711 126.786L1707.01 118.798L1703 126.798L1706.99 125.276L1711 126.786Z" fill="white"/>
<path d="M1737 126.786L1733.01 118.798L1729 126.798L1732.99 125.276L1737 126.786Z" fill="white"/>
<path d="M1763 126.786L1759.01 118.798L1755 126.798L1758.99 125.276L1763 126.786Z" fill="white"/>
<path d="M1790 126.786L1786.01 118.798L1782 126.798L1785.99 125.276L1790 126.786Z" fill="white"/>
<path d="M1816 126.786L1812.01 118.798L1808 126.798L1811.99 125.276L1816 126.786Z" fill="white"/>
<path d="M1842 126.786L1838.01 118.798L1834 126.798L1837.99 125.276L1842 126.786Z" fill="white"/>
<path d="M1868 126.786L1864.01 118.798L1860 126.798L1863.99 125.276L1868 126.786Z" fill="white"/>
<path d="M11 153.789L8.00796 147.798L5 153.798L7.99204 152.657L11 153.789Z" fill="white"/>
<path d="M37 153.789L34.008 147.798L31 153.798L33.992 152.657L37 153.789Z" fill="white"/>
<path d="M63 153.789L60.008 147.798L57 153.798L59.992 152.657L63 153.789Z" fill="white"/>
<path d="M89 153.789L86.008 147.798L83 153.798L85.992 152.657L89 153.789Z" fill="white"/>
<path d="M116 153.789L113.008 147.798L110 153.798L112.992 152.657L116 153.789Z" fill="white"/>
<path d="M142 153.789L139.008 147.798L136 153.798L138.992 152.657L142 153.789Z" fill="white"/>
<path d="M168 153.789L165.008 147.798L162 153.798L164.992 152.657L168 153.789Z" fill="white"/>
<path d="M194 153.789L191.008 147.798L188 153.798L190.992 152.657L194 153.789Z" fill="white"/>
<path d="M220 153.789L217.008 147.798L214 153.798L216.992 152.657L220 153.789Z" fill="white"/>
<path d="M246 153.789L243.008 147.798L240 153.798L242.992 152.657L246 153.789Z" fill="white"/>
<path d="M272 153.789L269.008 147.798L266 153.798L268.992 152.657L272 153.789Z" fill="white"/>
<path d="M299 153.789L296.008 147.798L293 153.798L295.992 152.657L299 153.789Z" fill="white"/>
<path d="M325 153.789L322.008 147.798L319 153.798L321.992 152.657L325 153.789Z" fill="white"/>
<path d="M351 153.789L348.008 147.798L345 153.798L347.992 152.657L351 153.789Z" fill="white"/>
<path d="M377 153.789L374.008 147.798L371 153.798L373.992 152.657L377 153.789Z" fill="white"/>
<path d="M403 153.789L400.008 147.798L397 153.798L399.992 152.657L403 153.789Z" fill="white"/>
<path d="M429 153.789L426.008 147.798L423 153.798L425.992 152.657L429 153.789Z" fill="white"/>
<path d="M455 153.789L452.008 147.798L449 153.798L451.992 152.657L455 153.789Z" fill="white"/>
<path d="M482 153.789L479.008 147.798L476 153.798L478.992 152.657L482 153.789Z" fill="white"/>
<path d="M508 153.789L505.008 147.798L502 153.798L504.992 152.657L508 153.789Z" fill="white"/>
<path d="M534 153.789L531.008 147.798L528 153.798L530.992 152.657L534 153.789Z" fill="white"/>
<path d="M560 153.789L557.008 147.798L554 153.798L556.992 152.657L560 153.789Z" fill="white"/>
<path d="M586 153.789L583.008 147.798L580 153.798L582.992 152.657L586 153.789Z" fill="white"/>
<path d="M612 153.789L609.008 147.798L606 153.798L608.992 152.657L612 153.789Z" fill="white"/>
<path d="M638 153.789L635.008 147.798L632 153.798L634.992 152.657L638 153.789Z" fill="white"/>
<path d="M665 153.789L662.008 147.798L659 153.798L661.992 152.657L665 153.789Z" fill="white"/>
<path d="M691 153.789L688.008 147.798L685 153.798L687.992 152.657L691 153.789Z" fill="white"/>
<path d="M717 153.789L714.008 147.798L711 153.798L713.992 152.657L717 153.789Z" fill="white"/>
<path d="M743 153.789L740.008 147.798L737 153.798L739.992 152.657L743 153.789Z" fill="white"/>
<path d="M769 153.789L766.008 147.798L763 153.798L765.992 152.657L769 153.789Z" fill="white"/>
<path d="M795 153.789L792.008 147.798L789 153.798L791.992 152.657L795 153.789Z" fill="white"/>
<path d="M821 153.789L818.008 147.798L815 153.798L817.992 152.657L821 153.789Z" fill="white"/>
<path d="M848 153.789L844.509 147.798L841 153.798L844.491 152.657L848 153.789Z" fill="white"/>
<path d="M874 153.789L871.008 147.798L868 153.798L870.992 152.657L874 153.789Z" fill="white"/>
<path d="M900 153.789L897.008 147.798L894 153.798L896.992 152.657L900 153.789Z" fill="white"/>
<path d="M926 153.789L923.008 147.798L920 153.798L922.992 152.657L926 153.789Z" fill="white"/>
<path d="M952 153.789L949.008 147.798L946 153.798L948.992 152.657L952 153.789Z" fill="white"/>
<path d="M978 153.789L975.008 147.798L972 153.798L974.992 152.657L978 153.789Z" fill="white"/>
<path d="M1004 153.789L1001.01 147.798L998 153.798L1000.99 152.657L1004 153.789Z" fill="white"/>
<path d="M1031 153.789L1027.51 147.798L1024 153.798L1027.49 152.657L1031 153.789Z" fill="white"/>
<path d="M1057 153.789L1054.01 147.798L1051 153.798L1053.99 152.657L1057 153.789Z" fill="white"/>
<path d="M1083 153.789L1080.01 147.798L1077 153.798L1079.99 152.657L1083 153.789Z" fill="white"/>
<path d="M1109 153.789L1106.01 147.798L1103 153.798L1105.99 152.657L1109 153.789Z" fill="white"/>
<path d="M1135 153.789L1132.01 147.798L1129 153.798L1131.99 152.657L1135 153.789Z" fill="white"/>
<path d="M1161 153.789L1158.01 147.798L1155 153.798L1157.99 152.657L1161 153.789Z" fill="white"/>
<path d="M1187 153.789L1184.01 147.798L1181 153.798L1183.99 152.657L1187 153.789Z" fill="white"/>
<path d="M1213 153.789L1210.01 147.798L1207 153.798L1209.99 152.657L1213 153.789Z" fill="white"/>
<path d="M1240 153.789L1237.01 147.798L1234 153.798L1236.99 152.657L1240 153.789Z" fill="white"/>
<path d="M1266 153.789L1263.01 147.798L1260 153.798L1262.99 152.657L1266 153.789Z" fill="white"/>
<path d="M1292 153.789L1289.01 147.798L1286 153.798L1288.99 152.657L1292 153.789Z" fill="white"/>
<path d="M1318 153.789L1315.01 147.798L1312 153.798L1314.99 152.657L1318 153.789Z" fill="white"/>
<path d="M1344 153.789L1341.01 147.798L1338 153.798L1340.99 152.657L1344 153.789Z" fill="white"/>
<path d="M1370 153.789L1367.01 147.798L1364 153.798L1366.99 152.657L1370 153.789Z" fill="white"/>
<path d="M1396 153.789L1393.01 147.798L1390 153.798L1392.99 152.657L1396 153.789Z" fill="white"/>
<path d="M1423 153.789L1420.01 147.798L1417 153.798L1419.99 152.657L1423 153.789Z" fill="white"/>
<path d="M1449 153.789L1446.01 147.798L1443 153.798L1445.99 152.657L1449 153.789Z" fill="white"/>
<path d="M1475 153.789L1472.01 147.798L1469 153.798L1471.99 152.657L1475 153.789Z" fill="white"/>
<path d="M1501 153.789L1498.01 147.798L1495 153.798L1497.99 152.657L1501 153.789Z" fill="white"/>
<path d="M1527 153.789L1524.01 147.798L1521 153.798L1523.99 152.657L1527 153.789Z" fill="white"/>
<path d="M1553 153.789L1550.01 147.798L1547 153.798L1549.99 152.657L1553 153.789Z" fill="white"/>
<path d="M1579 153.789L1576.01 147.798L1573 153.798L1575.99 152.657L1579 153.789Z" fill="white"/>
<path d="M1606 153.789L1603.01 147.798L1600 153.798L1602.99 152.657L1606 153.789Z" fill="white"/>
<path d="M1632 153.789L1629.01 147.798L1626 153.798L1628.99 152.657L1632 153.789Z" fill="white"/>
<path d="M1658 153.789L1655.01 147.798L1652 153.798L1654.99 152.657L1658 153.789Z" fill="white"/>
<path d="M1684 153.789L1681.01 147.798L1678 153.798L1680.99 152.657L1684 153.789Z" fill="white"/>
<path d="M1710 153.789L1707.01 147.798L1704 153.798L1706.99 152.657L1710 153.789Z" fill="white"/>
<path d="M1736 153.789L1733.01 147.798L1730 153.798L1732.99 152.657L1736 153.789Z" fill="white"/>
<path d="M1762 153.789L1759.01 147.798L1756 153.798L1758.99 152.657L1762 153.789Z" fill="white"/>
<path d="M1789 153.789L1786.01 147.798L1783 153.798L1785.99 152.657L1789 153.789Z" fill="white"/>
<path d="M1815 153.789L1812.01 147.798L1809 153.798L1811.99 152.657L1815 153.789Z" fill="white"/>
<path d="M1841 153.789L1838.01 147.798L1835 153.798L1837.99 152.657L1841 153.789Z" fill="white"/>
<path d="M1867 153.789L1864.01 147.798L1861 153.798L1863.99 152.657L1867 153.789Z" fill="white"/>
</svg>
