<svg width="158" height="36" viewBox="0 0 158 36" fill="none" xmlns="http://www.w3.org/2000/svg">
<path d="M12.2426 0H0L20.3225 35.065L26.4382 24.5075L12.2426 0Z" fill="#A3CCC9"/>
<path d="M33.2116 13.1354L40.767 0.0892811H25.6562L31.5711 5.35684L33.2116 13.1354Z" fill="white"/>
<path d="M54.375 6.2803H58.8372L64.5373 22.6575L70.3525 6.2803H74.786L66.6101 29.308H62.4357L54.375 6.2803Z" fill="white"/>
<path d="M86.3001 6.2803H81.5898V29.308H86.3001V6.2803Z" fill="white"/>
<path d="M97.011 6.2803H101.234L106.492 22.3353L111.779 6.2803H115.974L119.795 29.308H115.629L113.187 14.7765L108.36 29.308H104.567L99.7979 14.7765L97.2983 29.308H93.1035L97.011 6.2803Z" fill="white"/>
<path d="M131.308 6.2803H126.598V29.308H131.308V6.2803Z" fill="white"/>
<path d="M138.055 6.2803H142.969L147.795 13.6632L152.622 6.2803H157.536L150.267 17.4426L158.001 29.308H153.087L147.795 21.222L142.533 29.308H137.59L145.353 17.4426L138.055 6.2803Z" fill="white"/>
</svg>
